<?xml version="1.0" encoding="utf-8"?>
<!-- Generator: Adobe Illustrator 24.0.2, SVG Export Plug-In . SVG Version: 6.00 Build 0)  -->
<svg version="1.1" id="Layer_1" xmlns="http://www.w3.org/2000/svg" xmlns:xlink="http://www.w3.org/1999/xlink" x="0px" y="0px"
	 viewBox="0 0 1065.4 186.6" style="enable-background:new 0 0 1065.4 186.6;" xml:space="preserve">
<style type="text/css">
	.st0{fill:#E6E7E8;}
	.st1{fill:#D0D2D3;}
	.st2{fill:#E31E26;}
	.st3{opacity:0.2;fill:url(#SVGID_1_);enable-background:new    ;}
	.st4{fill:#FFFFFF;}
</style>
<title>logo-high-res</title>
<path class="st0" d="M195.4,183.3c0,1.8-40.8,3.3-91.1,3.3s-91.1-1.5-91.1-3.3s40.8-3.3,91.1-3.3S195.4,181.5,195.4,183.3z"/>
<path class="st1" d="M136.9,182.4c0,1.3-24.4,2.4-54.5,2.4S28,183.7,28,182.4s24.3-2.4,54.4-2.4S136.9,181.1,136.9,182.4
	L136.9,182.4z"/>
<path class="st2" d="M245.1,36.7c16.9,50.9-34,112.6-110.4,135.6s-118.2-2-132-39C-8.9,102.6,17,45.3,87.4,17.2
	C155.7-10,231-5.7,245.1,36.7L245.1,36.7z"/>
<linearGradient id="SVGID_1_" gradientUnits="userSpaceOnUse" x1="120.608" y1="516.0464" x2="283.1565" y2="353.4879" gradientTransform="matrix(1 0 0 1 -82.62 -366.02)">
	<stop  offset="0" style="stop-color:#FFFFFF"/>
	<stop  offset="1" style="stop-color:#BE1E2D"/>
</linearGradient>
<path class="st3" d="M232.8,20.8c18.6,33.4-35.1,83.7-111.6,106.7s-110.1,7.4-119-19.4C-3,92.7,30.9,38.3,87.3,16.9
	C156-9,220.7-1,232.8,20.8z"/>
<path class="st4" d="M77.9,183c-36.8,0-63.7-18.1-64.3-51.8C13,56.9,96-2.4,165.3,0.1c63.7,1.9,59.9,54.3,1.3,82.4
	c-18.7,8.7-46.8,16.2-64.3,15.6c-10.6-0.6-11.8-5.6,0.6-5.6c10.6,0,36.8-6.2,58.7-17.5c57.5-31.2,31.8-69.9-11.9-49.9
	c-33.7,15.6-73,60.5-79.9,98.6c-4.4,24.3,6.2,43.1,31.2,42.4c43.7-0.6,120.5-64.9,149.8-93c9.4-9.4,9.4,1.9,3.8,6.9
	C207.1,123.7,146.6,182.4,77.9,183L77.9,183z"/>
<path class="st4" d="M328.6,40.1c0.2,0.5,0.4,1,0.6,1.4s0.3,0.8,0.5,1.3c3.8,8.9,7.4,17.5,10.8,25.7c3.4,8.2,6.3,14.7,8.7,19.4
	l17.4-49.2c0.2-0.3,0.3-0.5,0.4-0.8c0.1-0.3,0.2-0.7,0.3-1c0.2-0.8,0.4-1.5,0.5-2.2c0.1-0.6,0.2-1.1,0.2-1.7v-0.3
	c-0.1-0.1-0.1-0.1-0.1-0.2c-0.3-0.8-1-1.4-1.8-1.7c-1-0.6-2.1-1-3.3-1.4l-1-0.4l-1-0.4l-2.8-1.3h29.2l-2.3,0.8
	c-0.1,0.1-0.3,0.2-0.5,0.3c-0.2,0-0.3,0.1-0.5,0.2l-1.4,0.5l-1.4,0.5c-1.2,0.3-2.4,0.7-3.5,1.3c-0.9,0.3-1.6,0.9-2.1,1.7
	c-0.2,0.3-0.4,0.7-0.6,1c-0.2,0.3-0.4,0.7-0.5,1c-0.3,0.4-0.5,0.9-0.7,1.4c-0.2,0.5-0.4,1-0.6,1.6c-0.6,1.3-1.9,4.8-3.9,10.4
	s-4.1,11.7-6.4,18.3c-0.1,0.2-0.1,0.4-0.2,0.7c-0.1,0.2-0.2,0.5-0.3,0.7c-2.2,6.7-4.3,13-6.3,18.9c-2,5.8-3.2,9.6-3.7,11.1
	c-0.2,0.8-0.4,1.5-0.5,2.2c-0.1,0.6-0.2,1.3-0.3,1.9c0,0.3,0,0.7-0.1,1c0,0.3,0,0.7,0,1c0,0.4,0,0.8,0,1.2s-0.1,0.8-0.2,1.3h-5.1
	c-0.2-0.6-0.4-1.2-0.6-1.7s-0.4-1-0.6-1.6c-0.1-0.1-0.1-0.3-0.2-0.5c0-0.2-0.1-0.3-0.2-0.5c-0.1-0.4-0.3-0.7-0.4-1.1
	s-0.2-0.8-0.4-1.2c-0.8-2.6-1.9-5.6-3.1-9s-2.6-6.8-4-10.4c-0.2-0.5-0.4-1-0.6-1.5s-0.4-1-0.6-1.4c-2.1-5.4-4.1-10.4-6-14.9
	c-1.9-4.6-3.1-7.5-3.8-8.8l-3.5-7.7l-3.7,8.9c-0.4,1-1.4,3.7-2.8,7.8s-3,8.6-4.6,13.4c0,0.1,0,0.3,0,0.4c0,0.1-0.1,0.2-0.2,0.3
	c-1.5,4.6-3,8.9-4.3,12.9c-1.3,4-2.3,6.8-2.7,8.3c-0.2,0.8-0.4,1.5-0.6,2.1s-0.3,1.3-0.5,1.9c0,0.2,0,0.3,0,0.5
	c0,0.2-0.1,0.3-0.2,0.5c-0.1,0.5-0.2,1.1-0.3,1.6c-0.1,0.5-0.3,1.1-0.4,1.7h-5.2c-0.2-0.6-0.4-1.2-0.6-1.7c-0.2-0.5-0.3-1-0.5-1.6
	c-0.1-0.5-0.3-1-0.5-1.5l-0.6-1.7c-1-3-2.5-7.2-4.5-12.4s-4.2-10.8-6.5-16.5c-0.1-0.3-0.2-0.6-0.3-0.9c-0.2-0.3-0.3-0.7-0.4-1
	c-2.8-6.9-5.4-13.3-7.8-19.2c-2.4-5.9-4-9.7-4.7-11.4l-0.4-1c-0.1-0.3-0.2-0.6-0.4-0.8c-0.1-0.2-0.1-0.4-0.2-0.5
	c-0.1-0.2-0.2-0.4-0.3-0.5c-0.1-0.3-0.3-0.7-0.5-1.1s-0.4-0.8-0.6-1.2c-0.4-0.7-1.1-1.3-1.8-1.6c-1-0.5-2-0.9-3-1.3
	c-0.1,0-0.2,0-0.3-0.1c-0.1-0.1-0.2-0.1-0.4-0.1l-1.5-0.6c-0.5-0.2-1-0.5-1.5-0.7l-2.1-1.3h32l-2.7,1.2c-0.5,0.2-1,0.5-1.6,0.6
	c-0.6,0.2-1.3,0.4-2,0.6c-1,0.3-1.9,0.8-2.8,1.3c-0.8,0.4-1.3,1-1.6,1.8c-0.1,0.1-0.1,0.3-0.1,0.5v0.7c0,0.3,0,0.7,0,1.2
	s0.1,0.9,0.2,1.4l0.4,1.7c0.1,0.6,0.3,1.1,0.4,1.5l20.8,49.7c1.1-2.9,2.9-7.8,5.4-14.9s5.3-14.5,8.2-22.4c0.7-2,1.4-3.9,2-5.8
	s1.4-3.8,2-5.7c0.5-1.4,1-2.7,1.4-3.9s0.8-2.3,1.2-3.5l0.1-0.1v-0.1c0.4-1.1,0.9-2.3,1.3-3.5s0.9-2.6,1.4-4.1c0.4,1.1,0.7,2.2,1,3.2
	s0.6,2,0.9,2.9c0.1,0.4,0.2,0.7,0.3,1.1c0.1,0.3,0.3,0.7,0.3,1c0.3,1.1,0.7,2.2,1.2,3.4C327.5,37.5,328.1,38.8,328.6,40.1
	L328.6,40.1L328.6,40.1z M429.7,25.7c0.1,0.1,0.3,0.1,0.5,0.1h1.5c10.6-0.2,20.8,3.7,28.6,10.8c8.1,7.2,12.2,16.9,12.5,29.1
	c0.2,12.3-4.1,22.1-12.7,29.5c-8.4,7.3-19.3,11.2-30.5,10.9c-10.6,0.1-20.7-4.2-28-11.8c-7.6-7.5-11.8-17.9-11.6-28.6
	c-0.2-10.5,4.1-20.6,11.7-27.9c7.4-7.5,17.5-11.8,28-12.1L429.7,25.7z M429.6,31.6c-9.5,0.3-17.1,3.9-22.7,10.6
	c-5.5,6.5-8.4,14.9-8.3,23.4c0.2,8.6,3.3,16.9,9,23.4c5.5,6.9,13.7,11.1,22.5,11.5h1c0.1,0.1,0.3,0.1,0.5,0.1h0.6
	c8.4,0.1,16.4-3.2,22.3-9.2c6.3-6.1,9.5-14,9.5-23.7c0.1-9.3-3.4-18.3-9.6-25.1c-6.4-7.3-14.3-10.9-23.7-10.8h-1.2L429.6,31.6z
	 M513.3,68.8l-2.1,0.4l11.7,12.9c1.3,1.5,2.4,2.8,3.5,4.1s2.2,2.4,3.2,3.6c0.3,0.4,0.6,0.7,0.9,1s0.6,0.7,0.9,1
	c0.8,0.9,1.7,1.8,2.7,2.7s2,1.9,3,2.9c0.6,0.6,1.2,1.1,1.6,1.5c0.4,0.5,0.9,0.9,1.4,1.3l0.8,0.6c0.3,0.2,0.6,0.4,0.9,0.6
	c0.6,0.4,1.3,0.9,2.2,1.3c0.8,0.5,1.8,1,3.1,1.6l2.8,1.3l-3.5,0.8c-0.2,0.1-0.3,0.1-0.5,0.1h-0.7c-1.4,0-2.8-0.2-4.2-0.6
	c-1.7-0.4-3.3-0.9-5.1-1.4c-2-0.8-4.3-2.6-7.1-5.4c-2.8-2.8-5.6-5.8-8.6-9c-0.1-0.1-0.1-0.1-0.2-0.2c-0.1,0-0.1-0.1-0.1-0.2
	c-0.6-0.6-1.2-1.3-1.8-1.9l-1.7-1.9L501,69.8h-2.8v24.9c0,1,0,2.1,0.1,3.1c0.1,1,0.6,1.9,1.2,2.6c0.6,0.7,1.4,1.2,2.3,1.4
	c1.1,0.4,2.3,0.7,3.4,1l0.6,0.2c0.2,0.1,0.4,0.1,0.6,0.1c0.6,0.1,1.1,0.3,1.6,0.5l1.4,0.5l2.3,0.8H476l2.4-0.7
	c0.7-0.1,1.3-0.2,1.9-0.4l2.3-0.6l2.2-0.8c0.6-0.2,1.2-0.5,1.8-0.8c0.4-0.1,0.7-0.3,1-0.5c0.2-0.2,0.4-0.3,0.6-0.5
	c0.4-0.4,0.6-0.9,0.7-1.4c0.1-0.5,0.2-1.1,0.3-1.6v-60c0-0.8,0-1.7-0.1-2.5c-0.1-0.8-0.5-1.6-1-2.2c-0.7-0.7-1.5-1.3-2.4-1.6
	c-1.1-0.5-2.2-1-3.4-1.5l-2-0.8c-0.7-0.2-1.3-0.5-1.8-0.7l-2.3-1h19.1c1,0.1,2,0.1,2.9,0c0.9,0,1.8-0.1,2.7-0.2h0.8
	c0.8,0,1.5,0,2.3,0s1.6-0.1,2.4-0.1s1.6,0,2.4,0s1.7,0.1,2.6,0.1l1.6,0.2c0.5,0.1,1.1,0.1,1.6,0.2c4.4,1,8.5,3.3,11.7,6.6
	c3.6,3.5,5.4,8.4,5.4,14.6c0,4.8-1.2,8.5-3.5,11.3c-2.1,2.6-4.8,4.7-7.7,6.2c-1.2,0.6-2.5,1.1-3.8,1.6
	C515.4,68.2,514.3,68.5,513.3,68.8L513.3,68.8L513.3,68.8z M508.4,31.9c-0.2,0.1-0.4,0.1-0.6,0.1c-0.2,0-0.3,0-0.5-0.1h-1.6
	c-1.3,0-2.6,0.1-3.9,0.3c-0.9,0.1-1.7,0.3-2.5,0.7c-0.6,0.4-1,1-1.1,1.7c-0.1,0.7-0.2,1.5-0.2,2.2v28.7l4.9-0.1
	c5.1,0.1,10.2-1.5,14.3-4.6c3.8-2.8,6.1-7.3,5.9-12v-1.3c-0.2-3.9-1.8-7.6-4.6-10.5c-2.4-2.5-5.5-4.2-8.9-4.8
	c-0.2-0.1-0.4-0.1-0.7-0.2c-0.3,0-0.5,0-0.8,0L508.4,31.9z M575.9,94.8c0,0.7,0.1,1.5,0.2,2.2c0.1,0.7,0.5,1.3,1,1.8
	c0.5,0.4,1,0.7,1.7,0.8c0.7,0.1,1.4,0.2,2.1,0.3h0.9l12.9-0.1c0.5,0.1,1,0.1,1.5,0c0.6,0,1.1-0.1,1.6-0.3c0.7-0.1,1.4-0.2,2.1-0.4
	c0.6-0.2,1.2-0.5,1.8-0.8c0.9-0.6,1.7-1.4,2.2-2.4c0.5-1.1,1-2.1,1.4-3.3c0.1-0.3,0.2-0.5,0.3-0.8c0.1-0.2,0.2-0.4,0.3-0.7l1.4-3.9
	v17.7h-53.6l2.4-0.7c0.7-0.1,1.3-0.2,1.9-0.4c0.7-0.2,1.5-0.4,2.3-0.6s1.4-0.5,2.1-0.8s1.3-0.5,1.9-0.8c0.3-0.1,0.7-0.3,0.9-0.5
	c0.2-0.2,0.4-0.3,0.6-0.5c0.1-0.2,0.3-0.4,0.4-0.6c0.1-0.2,0.2-0.4,0.4-0.6c0.1-0.4,0.2-0.8,0.3-1.3c0-0.4,0-0.8,0-1.3V37.4
	c0-0.2,0-0.4,0.1-0.6v-1.2c0-0.3,0-0.5,0-0.8c0-0.2-0.1-0.5-0.2-0.8c-0.1-0.4-0.2-0.8-0.3-1.2c-0.1-0.4-0.4-0.8-0.6-1.1
	c-0.2-0.2-0.4-0.4-0.6-0.5c-0.3-0.2-0.6-0.4-1-0.5c-0.6-0.3-1.2-0.6-1.9-0.8c-0.7-0.3-1.4-0.5-2.1-0.8s-1.5-0.4-2.3-0.6
	s-1.4-0.4-2-0.5l-2.4-0.8h35.7l-2.3,1c-0.5,0.3-1,0.5-1.5,0.6c-0.6,0.1-1.2,0.3-1.8,0.4c-0.1,0.1-0.3,0.1-0.4,0.2
	c-0.1,0-0.3,0.1-0.4,0.2c-1.2,0.3-2.3,0.6-3.4,1c-0.8,0.2-1.6,0.7-2.3,1.3c-0.1,0.1-0.2,0.3-0.3,0.4c-0.1,0.1-0.2,0.2-0.3,0.4
	c-0.4,0.7-0.7,1.5-0.7,2.3c-0.1,0.8-0.1,1.7-0.1,2.6L575.9,94.8L575.9,94.8z M693.2,61.4c0.1,0.8,0.1,1.7,0.2,2.4s0,1.5,0,2.3
	c0,8.6-2,15.6-5.9,20.8c-5.5,7.7-13.3,13.5-22.2,16.5c-2.3,0.8-4.6,1.4-7,1.8c-1,0.1-2.1,0.3-3.3,0.4s-2.5,0.2-3.8,0.2
	c-0.7,0-1.4,0-2.1,0s-1.4,0-2.1,0c-1-0.1-2-0.1-2.9-0.2s-1.9-0.1-2.8-0.2c-1.5-0.1-3-0.3-4.4-0.3s-2.5-0.1-3.4-0.1H611l2.3-0.8
	c0.5-0.1,1-0.3,1.7-0.5l1.9-0.6c1.2-0.4,2.3-0.9,3.4-1.4c0.9-0.4,1.6-0.9,2.3-1.6c0.1-0.1,0.2-0.2,0.3-0.4c0.1-0.1,0.1-0.2,0.2-0.3
	c0.4-0.6,0.7-1.3,0.9-2c0.2-0.7,0.3-1.5,0.3-2.3V37.5c0-0.8-0.1-1.7-0.2-2.5c-0.1-0.8-0.5-1.6-1-2.2c-0.7-0.7-1.5-1.2-2.4-1.5
	c-1.1-0.5-2.2-0.9-3.4-1.2c-0.7-0.3-1.4-0.5-2-0.7c-0.7-0.2-1.3-0.4-1.8-0.6l-2.3-1h19.1c1.1,0.1,2.2,0.1,3.3,0
	c1.3-0.1,2.7-0.1,4.2-0.2s3.2,0,4.9-0.1s3.5-0.1,5.4-0.1c1.3,0,2.5,0,3.8,0s2.5,0.1,3.8,0.2l2.6,0.2c0.8,0.1,1.7,0.2,2.5,0.3
	c4.6,0.8,9,2.3,13,4.6c4.8,2.8,9.1,6.5,12.6,10.9c3.9,4.7,6.1,10.7,6.8,17.9L693.2,61.4L693.2,61.4z M633.2,37.4V94c0,1,0.1,2,0.4,3
	c0.3,0.9,1,1.7,1.8,2.2c0.1,0.1,0.2,0.1,0.3,0.2c0.2,0,0.3,0,0.5,0c1.5,0.3,3,0.5,4.5,0.6c2.3,0.2,4.5,0.3,6.8,0.3h1.6
	c0.5,0,1,0,1.5-0.1c2.2-0.1,4.4-0.3,6.6-0.6c1.9-0.3,3.8-0.8,5.5-1.5c1.2-0.6,2.5-1.2,4-1.8c1.6-0.7,3.2-1.6,4.7-2.5
	c3.4-2.3,6.3-5.2,8.6-8.7c2.7-3.8,4.1-9.4,4.4-16.6V67c0-7.6-2.5-15.1-7.2-21.1c-5.7-7.7-14.5-12.4-24-12.8
	c-2.2-0.1-4.5-0.2-6.9-0.1h-0.4c-2.5,0-4.8,0.1-6.9,0.3c-1.5,0-3,0.3-4.3,0.9c-0.5,0.3-0.9,0.8-1.1,1.4c-0.2,0.7-0.3,1.4-0.3,2.1
	L633.2,37.4L633.2,37.4z"/>
<path class="st4" d="M701.3,27.1h49.6l5.5-2l-0.2,23.5l-1.7-5.6c-0.1-0.1-0.1-0.2-0.2-0.3c0-0.1,0-0.2,0-0.3
	c-0.1-0.4-0.3-0.8-0.4-1.3s-0.2-0.8-0.4-1.3c-0.5-1.4-1-2.7-1.6-3.9c-0.4-1.1-1.2-1.9-2.3-2.4c-0.3-0.1-0.7-0.2-1.1-0.3
	c-0.3-0.1-0.7-0.1-1-0.1c-0.3-0.1-0.7-0.1-1-0.1h-15.9v61.5c0,1,0,2.1,0.2,3.1c0.1,1,0.6,1.9,1.2,2.6c0.6,0.7,1.4,1.2,2.3,1.4
	c1.1,0.4,2.3,0.7,3.4,1l0.6,0.2c0.2,0.1,0.4,0.1,0.6,0.1c0.6,0.1,1.1,0.3,1.6,0.5s0.9,0.3,1.4,0.5l2.3,0.8h-35.6l2.4-0.7
	c0.7-0.1,1.3-0.2,1.9-0.4c0.7-0.2,1.5-0.4,2.3-0.6s1.4-0.5,2.1-0.8s1.3-0.5,1.9-0.8c0.3-0.1,0.7-0.3,0.9-0.5
	c0.2-0.2,0.4-0.3,0.6-0.5l0.6-1c0.2-0.3,0.3-0.7,0.4-1c0.1-0.3,0.1-0.7,0.2-1s0-0.7,0-1v-1.1c-0.1-0.2-0.1-0.4-0.1-0.6V33.2h-16.3
	c-0.3,0.1-0.7,0.1-1,0.1c-0.3,0-0.6,0-0.9,0.1c-0.2,0.1-0.3,0.1-0.5,0.2l-0.5,0.2c-1,0.7-1.7,1.8-2,2.9c-0.5,1.5-0.9,3-1.3,4.5
	c-0.1,0.2-0.1,0.4-0.2,0.7c0,0.2-0.1,0.5-0.2,0.7c-0.1,0.3-0.2,0.7-0.3,1c-0.1,0.3-0.2,0.7-0.3,1l-1.2,3.6l-0.5-22.9L701.3,27.1z
	 M797.1,68.8l-2.1,0.4l11.7,12.9c1.3,1.5,2.4,2.8,3.5,4.1l3.2,3.6c0.3,0.4,0.6,0.7,0.9,1s0.6,0.7,0.9,1c0.8,0.9,1.7,1.8,2.7,2.7
	s2,1.9,3,2.9c0.6,0.6,1.2,1.1,1.6,1.5c0.5,0.5,0.9,0.9,1.4,1.3l0.8,0.6c0.3,0.2,0.6,0.4,0.9,0.6c0.6,0.4,1.3,0.9,2.2,1.3
	s1.8,1,3.1,1.6l2.8,1.3l-3.5,0.8c-0.2,0.1-0.3,0.1-0.5,0.1h-0.7c-1.4,0-2.8-0.2-4.2-0.6c-1.7-0.4-3.3-0.9-5.1-1.4
	c-2-0.8-4.3-2.6-7.1-5.4c-2.8-2.8-5.6-5.8-8.6-9c-0.1-0.1-0.1-0.1-0.2-0.2c-0.1,0-0.1-0.1-0.1-0.2c-0.6-0.6-1.2-1.3-1.8-1.9
	l-1.7-1.9l-15.3-16.4H782v24.9c0,1,0,2.1,0.2,3.1c0.1,1,0.6,1.9,1.2,2.6c0.6,0.7,1.4,1.2,2.3,1.4c1.1,0.4,2.3,0.7,3.4,1l0.6,0.2
	c0.2,0.1,0.4,0.1,0.6,0.1c0.6,0.1,1.1,0.3,1.6,0.5l1.4,0.5l2.3,0.8h-35.6l2.4-0.7c0.7-0.1,1.3-0.2,1.9-0.4l2.3-0.6l2.2-0.8
	c0.6-0.2,1.2-0.5,1.8-0.8c0.4-0.1,0.7-0.3,1-0.5c0.2-0.2,0.4-0.3,0.6-0.5c0.4-0.4,0.6-0.9,0.8-1.4c0.1-0.5,0.2-1.1,0.3-1.6v-60
	c0-0.8,0-1.7-0.2-2.5c-0.1-0.8-0.5-1.6-1-2.2c-0.7-0.7-1.5-1.3-2.4-1.6c-1.1-0.5-2.2-1-3.4-1.5l-2-0.8c-0.7-0.2-1.3-0.5-1.8-0.7
	l-2.3-1h19.1c1,0.1,2,0.1,3,0c0.9,0,1.8-0.1,2.7-0.2h0.8c0.8,0,1.5,0,2.3,0s1.6-0.1,2.4-0.1s1.6,0,2.4,0s1.7,0.1,2.6,0.1l1.6,0.2
	l1.6,0.2c4.4,1,8.5,3.3,11.7,6.6c3.6,3.5,5.4,8.4,5.4,14.6c0,4.8-1.2,8.5-3.5,11.3c-2.1,2.6-4.8,4.7-7.7,6.2
	c-1.2,0.6-2.5,1.1-3.8,1.6C799.3,68.2,798.1,68.5,797.1,68.8L797.1,68.8L797.1,68.8z M792.2,31.9c-0.2,0.1-0.4,0.1-0.6,0.1
	c-0.2,0-0.3,0-0.5-0.1h-1.6c-1.3,0-2.6,0.1-3.8,0.3c-0.9,0.1-1.7,0.3-2.5,0.7c-0.6,0.4-1,1-1.1,1.7c-0.1,0.7-0.2,1.5-0.2,2.2v28.7
	l4.9-0.1c5.1,0.1,10.2-1.5,14.3-4.6c3.8-2.8,6.1-7.3,5.9-12v-1.3c-0.2-3.9-1.8-7.6-4.6-10.5c-2.4-2.5-5.5-4.2-8.9-4.8
	c-0.2-0.1-0.4-0.1-0.7-0.2c-0.3,0-0.5,0-0.8,0L792.2,31.9L792.2,31.9z M883.6,28.7c0.1,0.5,0.3,0.9,0.4,1.3c0.1,0.5,0.2,0.9,0.3,1.4
	c0.1,0.4,0.3,0.9,0.4,1.5c1,3,2.4,7.2,4.3,12.5c1.9,5.3,3.9,10.8,6,16.5l0.4,1l0.4,1c2.5,6.9,4.9,13.3,7.2,19.2
	c2.3,5.9,3.8,9.6,4.6,11.3c0.2,0.5,0.4,1,0.6,1.5c0.2,0.4,0.4,0.9,0.6,1.4s0.3,0.7,0.5,1.1s0.4,0.8,0.6,1.2c0.5,0.8,1.3,1.5,2.2,1.9
	c1.1,0.6,2.3,1.1,3.5,1.6c0.3,0.1,0.6,0.2,0.8,0.3s0.5,0.2,0.8,0.3c0.2,0.1,0.4,0.1,0.6,0.3c0.2,0.1,0.4,0.2,0.6,0.3l2.2,0.8h-31.1
	l2.7-1c0.5-0.1,0.9-0.2,1.4-0.4c0.5-0.2,1-0.4,1.6-0.6c0.9-0.3,1.8-0.8,2.7-1.3c0.7-0.4,1.2-1,1.5-1.8c0-0.1,0-0.2,0.1-0.2v-0.3
	c0-0.5-0.1-0.9-0.2-1.4c-0.1-0.5-0.3-1-0.5-1.5c-0.1-0.3-0.1-0.5-0.2-0.7l-0.2-0.6c-0.1-0.3-0.2-0.5-0.3-0.8
	c-0.1-0.2-0.2-0.4-0.3-0.7l-7-19.8H865l-7.4,19.7c0,0.2-0.1,0.3-0.2,0.5c0,0.1,0,0.2,0,0.4c-0.1,0.3-0.3,0.7-0.4,1
	c-0.1,0.3-0.2,0.7-0.3,1c-0.2,0.8-0.4,1.5-0.5,2.2c-0.1,0.5-0.2,1-0.2,1.6v0.3c0.3,0.7,0.9,1.2,1.6,1.5c0.9,0.4,1.8,0.8,2.7,1.1
	c0.1,0,0.3,0,0.4,0c0.1,0,0.2,0.1,0.3,0.2c0.4,0.1,0.7,0.3,1.1,0.4c0.3,0.1,0.7,0.2,1,0.4l2.8,1h-28.7l2.3-0.8
	c0.5-0.1,1-0.3,1.6-0.5s1.2-0.4,1.7-0.6c1.2-0.4,2.3-0.9,3.4-1.5c0.9-0.4,1.6-1,2.1-1.8c0.2-0.3,0.4-0.7,0.5-1
	c0.1-0.3,0.3-0.7,0.4-1c0.1-0.2,0.2-0.4,0.3-0.6c0.1-0.2,0.1-0.5,0.2-0.7c0.1-0.3,0.3-0.5,0.4-0.8l0.4-1c0.9-2,1.8-4,2.7-6.2
	s1.7-4.2,2.6-6.4c0.5-1.1,1-2.3,1.5-3.4s1-2.3,1.5-3.5c3.6-9,6.9-17.5,9.9-25.4s4.8-12.9,5.5-15.1c0.2-0.7,0.4-1.3,0.6-1.9
	s0.3-1.1,0.5-1.7c0-0.2,0-0.4,0.1-0.6c0.1-0.2,0.1-0.4,0.1-0.6c0.2-0.4,0.3-0.8,0.4-1.2c0.1-0.4,0.2-0.8,0.3-1.3l7-0.1
	C883.3,27.7,883.5,28.2,883.6,28.7L883.6,28.7z M877.9,40.7l-10.7,27.6h21.3L877.9,40.7z M1005.5,61.4c0.1,0.8,0.1,1.7,0.2,2.4
	s0,1.5,0,2.3c0,8.6-2,15.6-5.9,20.8c-3.5,4.8-7.9,9-12.9,12.1c-2.9,1.8-6.1,3.3-9.3,4.4c-2.3,0.8-4.6,1.4-7,1.8
	c-1,0.1-2.1,0.3-3.3,0.4s-2.5,0.2-3.8,0.2c-0.7,0-1.4,0-2.1,0s-1.4,0-2.1,0c-1-0.1-2-0.1-2.9-0.2s-1.9-0.1-2.8-0.2
	c-1.5-0.1-3-0.3-4.4-0.3s-2.5-0.1-3.4-0.1h-22.3l2.3-0.8c0.5-0.1,1-0.3,1.7-0.5l1.9-0.6c1.2-0.4,2.3-0.9,3.4-1.4
	c0.9-0.4,1.7-1,2.3-1.7c0.1-0.1,0.2-0.3,0.3-0.4c0.1-0.1,0.1-0.2,0.2-0.3c0.4-0.6,0.7-1.3,0.9-2c0.2-0.7,0.3-1.5,0.3-2.3V37.5
	c0-0.8,0-1.7-0.2-2.5c-0.1-0.8-0.5-1.6-1-2.2c-0.7-0.7-1.5-1.2-2.4-1.5c-1.1-0.5-2.3-0.9-3.5-1.2c-0.7-0.3-1.4-0.5-2-0.7
	c-0.7-0.2-1.3-0.4-1.8-0.6l-2.3-1h19.1c1.1,0.1,2.2,0.1,3.3,0c1.3-0.1,2.7-0.1,4.2-0.2s3.2,0,4.9-0.1s3.5-0.1,5.4-0.1
	c1.3,0,2.5,0,3.8,0s2.5,0.1,3.8,0.2l2.6,0.2c0.8,0.1,1.7,0.2,2.5,0.3c4.6,0.8,9,2.3,13,4.6c4.8,2.8,9.1,6.5,12.6,10.9
	c3.9,4.7,6.2,10.7,6.8,17.9L1005.5,61.4L1005.5,61.4z M945.6,37.4V94c0,1,0.1,2,0.4,3c0.3,0.9,0.9,1.7,1.8,2.2
	c0.1,0.1,0.2,0.1,0.3,0.2c0.2,0,0.3,0,0.5,0c1.5,0.3,3,0.5,4.5,0.7c2.3,0.2,4.5,0.3,6.8,0.3h1.6c0.5,0,1,0,1.5-0.1
	c2.2-0.1,4.4-0.3,6.6-0.6c1.9-0.3,3.7-0.8,5.5-1.6c1.2-0.6,2.5-1.2,4-1.8c1.6-0.7,3.2-1.6,4.7-2.5c3.4-2.3,6.4-5.2,8.7-8.7
	c2.7-3.8,4.1-9.4,4.4-16.6V67c0-7.6-2.5-15.1-7.2-21.1c-5.7-7.7-14.5-12.4-24-12.8c-2.2-0.1-4.5-0.2-6.9-0.1h-0.4
	c-2.5,0-4.8,0.1-6.9,0.3c-1.5,0-3,0.3-4.3,0.9c-0.6,0.3-1,0.8-1.1,1.4c-0.2,0.7-0.3,1.4-0.3,2.1L945.6,37.4L945.6,37.4z
	 M1061.8,27.1l-0.1,17.3l-1.5-4.2c-0.2-0.3-0.3-0.7-0.4-1c-0.1-0.3-0.2-0.6-0.4-1c-0.3-0.9-0.7-1.7-1.1-2.6c-0.4-0.8-1.1-1.5-1.8-2
	c-0.6-0.4-1.2-0.6-1.9-0.8c-0.7-0.2-1.4-0.3-2.1-0.4c-0.4,0-0.8,0-1.2-0.1s-0.8,0-1.2,0l-12.9-0.1c-0.1,0.1-0.3,0.1-0.4,0.1h-0.5
	c-0.8,0-1.7,0-2.5,0.1c-0.7,0-1.3,0.3-1.8,0.7c-0.3,0.4-0.5,0.9-0.5,1.4c-0.1,0.7-0.1,1.4-0.1,2.2v25.9h17.5c0.8,0,1.6,0,2.4-0.2
	c0.7-0.1,1.4-0.4,2-0.9c0.1-0.1,0.3-0.3,0.4-0.4c0.1-0.1,0.2-0.2,0.3-0.4c0.3-0.2,0.6-0.5,0.8-0.8c0.2-0.3,0.4-0.6,0.6-1l2.2-4.6
	v24.8l-1-2.4l-0.3-0.7c-0.1-0.3-0.2-0.6-0.3-0.8s-0.1-0.3-0.2-0.4s-0.1-0.2-0.2-0.4c-0.3-1.1-0.7-2.2-1.2-3.2
	c-0.4-0.9-1-1.7-1.8-2.2c-0.4-0.3-0.8-0.5-1.3-0.6c-0.4-0.1-0.8-0.2-1.3-0.3c-0.4-0.1-0.9-0.1-1.3-0.1h-17.5v25.8
	c0,0.4,0,0.7,0.1,1.2c0,0.4,0.1,0.8,0.2,1.2c0.1,0.7,0.3,1.4,0.6,2c0.2,0.5,0.5,0.9,1,1.2c0.5,0.3,1,0.4,1.5,0.5
	c0.5,0.1,0.9,0.1,1.4,0.1h0.6c0.2,0,0.4,0,0.6-0.1h1.2l17.2-0.1c0.2,0.1,0.4,0.1,0.6,0.1h0.6c0.2,0.1,0.3,0.1,0.5,0.1h0.6
	c0.3,0,0.7,0,1-0.1c0.3-0.1,0.7-0.2,1-0.3c0.6-0.4,1.2-1,1.4-1.7c0.4-0.8,0.8-1.8,1.1-2.8c0.1-0.2,0.1-0.4,0.2-0.7s0.2-0.5,0.2-0.7
	c0.1-0.4,0.3-0.8,0.5-1.3l0.5-1.2l1.4-3.4l-0.5,17h-55.7l2.4-0.7c0.7-0.1,1.3-0.2,1.9-0.4l2.3-0.6c0.7-0.3,1.4-0.5,2.1-0.8
	s1.3-0.5,1.9-0.8c0.3-0.1,0.7-0.3,0.9-0.5c0.2-0.2,0.4-0.3,0.6-0.5c0.3-0.4,0.6-0.9,0.7-1.4c0.1-0.5,0.2-1.1,0.3-1.6v-62
	c0-0.7,0-1.3-0.2-2c-0.1-0.7-0.4-1.3-0.9-1.7c-0.2-0.2-0.4-0.4-0.6-0.5c-0.3-0.2-0.6-0.4-1-0.5c-0.6-0.3-1.3-0.6-1.9-0.8
	c-0.7-0.3-1.4-0.5-2.1-0.8s-1.5-0.4-2.3-0.6s-1.4-0.4-1.9-0.5l-2.4-0.8h52.7L1061.8,27.1z"/>
<path class="st4" d="M289.5,148.5l5.2,1.3c-0.8,3.8-2.9,7.2-5.9,9.7c-3,2.3-6.6,3.5-10.3,3.4c-3.6,0.2-7.2-0.7-10.3-2.6
	c-2.7-1.8-4.8-4.4-6-7.4c-1.4-3.3-2.1-6.9-2.1-10.5c-0.1-3.7,0.7-7.3,2.3-10.7c1.5-2.9,3.8-5.3,6.6-6.9c2.9-1.6,6.2-2.4,9.5-2.4
	c3.5-0.1,7,0.9,9.9,3c2.7,2.1,4.7,5.1,5.6,8.4l-5.1,1.2c-0.6-2.4-2-4.6-3.9-6.2c-1.9-1.3-4.2-2-6.5-1.9c-2.7-0.1-5.3,0.7-7.5,2.2
	c-2,1.4-3.5,3.5-4.2,5.8c-0.8,2.4-1.2,4.9-1.2,7.5c-0.1,3,0.4,5.9,1.5,8.7c0.8,2.3,2.4,4.3,4.5,5.6c2,1.2,4.3,1.9,6.6,1.8
	c2.7,0.1,5.3-0.8,7.4-2.5C287.6,154,289,151.4,289.5,148.5L289.5,148.5z M299.5,148.1c0-5.2,1.5-9.1,4.4-11.6
	c2.5-2.1,5.6-3.2,8.9-3.1c3.6-0.1,7,1.3,9.5,3.8c2.5,2.6,3.7,6.1,3.7,10.6c0.1,3-0.4,5.9-1.6,8.6c-1.1,2.1-2.7,3.7-4.8,4.9
	c-2.1,1.2-4.4,1.8-6.8,1.7c-3.6,0.1-7.1-1.2-9.6-3.8C300.7,156.5,299.5,152.8,299.5,148.1L299.5,148.1z M304.4,148.1
	c0,3.6,0.8,6.3,2.4,8.1c2.9,3.3,7.9,3.6,11.2,0.7c0.3-0.2,0.5-0.5,0.7-0.7c1.6-1.8,2.4-4.6,2.4-8.3c0-3.5-0.8-6.1-2.4-8
	c-2.9-3.3-7.9-3.6-11.2-0.7c-0.3,0.2-0.5,0.5-0.7,0.7C305.2,141.7,304.4,144.4,304.4,148.1L304.4,148.1z M332.5,162.2v-28.3h4.3v4
	c2-3,5.4-4.8,9-4.7c1.6,0,3.2,0.3,4.7,0.9c1.3,0.5,2.4,1.3,3.2,2.4c0.7,1.1,1.3,2.3,1.5,3.5c0.2,1.5,0.3,3.1,0.3,4.7v17.4h-4.8V145
	c0.1-1.5-0.1-3-0.6-4.4c-0.4-1-1.1-1.8-2-2.3c-1-0.6-2.2-0.9-3.3-0.9c-2,0-3.8,0.7-5.3,2c-1.5,1.3-2.2,3.8-2.2,7.4v15.4H332.5
	L332.5,162.2z M363.7,162.2v-28.3h4.3v4c2-3,5.4-4.8,9-4.7c1.6,0,3.2,0.3,4.7,0.9c1.3,0.5,2.4,1.3,3.2,2.4c0.7,1.1,1.3,2.3,1.5,3.5
	c0.2,1.5,0.3,3.1,0.3,4.7v17.4h-4.8V145c0.1-1.5-0.1-3-0.6-4.4c-0.4-1-1.1-1.8-2-2.3c-1-0.6-2.2-0.9-3.3-0.9c-1.9,0-3.8,0.7-5.3,2
	c-1.5,1.3-2.2,3.8-2.2,7.4v15.4H363.7L363.7,162.2z M414.3,153.1l5,0.6c-0.6,2.7-2.2,5.1-4.3,6.8c-2.4,1.7-5.2,2.5-8.1,2.4
	c-4.1,0-7.4-1.3-9.9-3.8c-2.4-2.5-3.6-6.1-3.6-10.7c0-4.7,1.2-8.4,3.7-11.1c2.5-2.6,5.9-4.1,9.5-3.9c3.5-0.1,6.9,1.3,9.3,3.9
	c2.4,2.6,3.6,6.2,3.6,10.9c0,0.3,0,0.7,0,1.3h-21.2c0,2.6,0.9,5.1,2.6,7.1c1.5,1.6,3.7,2.5,5.9,2.5c1.6,0.1,3.2-0.4,4.5-1.4
	C412.7,156.4,413.8,154.9,414.3,153.1L414.3,153.1z M398.5,145.3h15.8c0-1.9-0.7-3.8-1.8-5.4c-1.4-1.8-3.6-2.8-6-2.8
	c-2.1,0-4.1,0.7-5.6,2.2C399.5,141,398.6,143.1,398.5,145.3L398.5,145.3z M444.6,151.8l4.7,0.6c-0.4,2.9-1.8,5.7-4,7.6
	c-2.2,1.9-5,2.8-7.8,2.8c-3.5,0.1-6.9-1.2-9.3-3.8c-2.3-2.5-3.5-6.2-3.5-10.9c-0.1-2.7,0.5-5.5,1.5-8c0.9-2.2,2.5-4,4.6-5.2
	c2.1-1.1,4.4-1.7,6.8-1.7c2.7-0.1,5.4,0.7,7.5,2.3c2,1.7,3.4,4,3.8,6.6l-4.7,0.7c-0.3-1.7-1.1-3.2-2.4-4.3c-1.1-1-2.6-1.5-4.1-1.4
	c-2.3-0.1-4.4,0.9-5.9,2.6c-1.5,1.7-2.3,4.5-2.3,8.2c0,3.8,0.7,6.6,2.2,8.3c1.4,1.7,3.5,2.6,5.7,2.6c1.7,0,3.4-0.6,4.7-1.7
	C443.6,155.7,444.5,153.8,444.6,151.8L444.6,151.8z M464.8,157.9l0.7,4.2c-1.2,0.3-2.4,0.4-3.6,0.4c-1.4,0.1-2.8-0.2-4-0.8
	c-0.9-0.5-1.6-1.2-2-2.2c-0.4-0.9-0.6-2.8-0.6-5.7v-16.3h-3.5v-3.7h3.5v-7l4.8-2.9v9.9h4.8v3.7H460v16.6c-0.1,0.9,0,1.8,0.3,2.6
	c0.2,0.4,0.5,0.7,0.8,0.9c0.5,0.3,1.1,0.4,1.6,0.4C463.4,158.1,464.1,158,464.8,157.9L464.8,157.9z M470.4,128.7v-5.5h4.8v5.5H470.4
	z M470.4,162.2v-28.3h4.8v28.3H470.4z M483.4,162.2v-28.3h4.3v4c2-3,5.4-4.8,9-4.7c1.6,0,3.2,0.3,4.7,0.9c1.3,0.5,2.4,1.3,3.2,2.4
	c0.7,1.1,1.3,2.3,1.5,3.5c0.2,1.5,0.3,3.1,0.3,4.7v17.4h-4.8V145c0.1-1.5-0.1-3-0.6-4.4c-0.4-1-1.1-1.8-2-2.3
	c-1-0.6-2.2-0.9-3.3-0.9c-2,0-3.8,0.7-5.3,2c-1.5,1.3-2.2,3.8-2.2,7.4v15.4L483.4,162.2L483.4,162.2z M513.7,164.6l4.7,0.7
	c0.1,1.2,0.7,2.4,1.6,3.1c1.4,1,3.2,1.4,4.9,1.3c1.8,0.1,3.6-0.4,5.1-1.3c1.2-0.9,2.1-2.2,2.4-3.7c0.3-2,0.4-4.1,0.3-6.2
	c-1.9,2.4-4.8,3.7-7.8,3.7c-3.5,0.2-6.9-1.4-9-4.2c-2.2-2.9-3.3-6.5-3.2-10.1c0-2.6,0.5-5.1,1.5-7.5c0.9-2.1,2.3-4,4.3-5.3
	c1.9-1.3,4.2-1.9,6.5-1.9c3.2,0,6.3,1.5,8.3,4.1v-3.4h4.4v24.4c0,4.4-0.5,7.5-1.3,9.4c-0.9,1.9-2.4,3.4-4.3,4.4
	c-2.2,1.1-4.7,1.7-7.2,1.6c-2.9,0.1-5.8-0.7-8.2-2.3C514.6,169.9,513.6,167.6,513.7,164.6L513.7,164.6z M517.7,147.6
	c0,3.7,0.7,6.4,2.2,8.1c2.6,3.1,7.2,3.4,10.3,0.8c0.3-0.2,0.5-0.5,0.8-0.8c1.5-1.7,2.2-4.4,2.2-8c0-3.5-0.8-6.1-2.3-7.8
	c-1.4-1.7-3.4-2.6-5.6-2.6c-2.1,0-4.1,0.9-5.4,2.6C518.5,141.6,517.7,144.1,517.7,147.6L517.7,147.6z M562.3,162.2v-39h14.7
	c2.5-0.1,4.9,0.3,7.2,1.2c1.8,0.7,3.2,2,4.2,3.6c1,1.5,1.5,3.3,1.5,5.1c0,1.7-0.5,3.3-1.4,4.7c-1,1.6-2.4,2.8-4.1,3.6
	c2.1,0.6,4,1.8,5.4,3.5c1.3,1.7,2,3.8,1.9,5.9c0,1.8-0.4,3.5-1.2,5.1c-0.7,1.4-1.6,2.7-2.9,3.6c-1.3,0.9-2.8,1.6-4.3,1.9
	c-2.1,0.5-4.2,0.7-6.3,0.6L562.3,162.2L562.3,162.2z M567.4,139.6h8.4c1.7,0.1,3.3-0.1,4.9-0.4c2.5-0.5,4.2-2.8,4-5.3
	c0-1.2-0.3-2.4-0.9-3.4c-0.6-1-1.6-1.7-2.7-2c-1.9-0.4-3.9-0.6-5.9-0.5h-7.8L567.4,139.6z M567.4,157.6h9.7c1.2,0,2.4,0,3.5-0.2
	c1.1-0.1,2.1-0.5,3-1.1c0.8-0.5,1.5-1.3,2-2.2c0.5-1,0.8-2.2,0.8-3.3c0-1.4-0.4-2.7-1.1-3.8c-0.8-1.1-1.8-1.9-3.1-2.3
	c-1.9-0.5-3.8-0.7-5.7-0.6h-9L567.4,157.6z M617.7,162.2V158c-2,3.1-5.4,4.9-9,4.8c-1.6,0-3.2-0.3-4.7-1c-1.3-0.5-2.4-1.3-3.2-2.4
	c-0.7-1.1-1.2-2.3-1.5-3.6c-0.2-1.5-0.3-3-0.3-4.5v-17.5h4.8v15.7c-0.1,1.7,0,3.4,0.3,5.1c0.3,1.2,0.9,2.3,1.9,3
	c1.1,0.7,2.3,1.1,3.6,1.1c1.4,0,2.8-0.4,4-1.1c1.2-0.7,2.1-1.7,2.7-3c0.6-1.8,0.9-3.7,0.8-5.5v-15.2h4.9v28.3L617.7,162.2
	L617.7,162.2z M628.4,153.7l4.7-0.8c0.2,1.7,1,3.3,2.2,4.4c1.5,1.1,3.3,1.6,5.1,1.5c1.7,0.1,3.5-0.3,4.9-1.3c1-0.7,1.6-1.9,1.6-3.2
	c0-1-0.5-2-1.4-2.6c-1.6-0.7-3.2-1.3-4.9-1.6c-2.5-0.5-5-1.3-7.3-2.3c-1.3-0.6-2.4-1.5-3.1-2.7c-0.7-1.1-1-2.5-1-3.8
	c0-1.2,0.3-2.4,0.9-3.5c0.6-1.1,1.4-2,2.4-2.7c0.9-0.6,1.9-1.1,3-1.4c1.3-0.4,2.7-0.6,4.1-0.6c2,0,4,0.3,5.8,1
	c1.5,0.5,2.8,1.4,3.7,2.6c0.9,1.3,1.4,2.8,1.6,4.4l-4.7,0.6c-0.1-1.3-0.8-2.6-1.8-3.4c-1.3-0.9-2.8-1.3-4.3-1.2
	c-2.2,0-3.8,0.4-4.7,1.1c-0.9,0.6-1.4,1.5-1.4,2.6c0,0.6,0.2,1.2,0.6,1.7c0.5,0.6,1.1,1,1.8,1.3c0.5,0.2,1.9,0.6,4.2,1.2
	c2.4,0.6,4.8,1.3,7.1,2.2c1.3,0.5,2.4,1.4,3.2,2.5c0.8,1.2,1.2,2.6,1.2,4.1c0,1.6-0.5,3.2-1.4,4.5c-1,1.5-2.4,2.6-4,3.3
	c-1.9,0.8-3.9,1.2-6,1.2c-3.7,0-6.5-0.8-8.4-2.3C630.1,158.9,628.8,156.4,628.4,153.7L628.4,153.7z M658.5,128.6v-5.5h4.8v5.5H658.5
	z M658.5,162.2v-28.3h4.8v28.3H658.5z M671.5,162.2v-28.3h4.3v4c2-3,5.4-4.8,9-4.7c1.6,0,3.2,0.3,4.7,0.9c1.3,0.5,2.4,1.3,3.2,2.4
	c0.7,1.1,1.3,2.3,1.5,3.5c0.2,1.5,0.3,3.1,0.3,4.7v17.4h-4.8V145c0.1-1.5-0.1-3-0.6-4.4c-0.4-1-1.1-1.8-2-2.3
	c-1-0.6-2.2-0.9-3.3-0.9c-2,0-3.8,0.7-5.3,2c-1.5,1.3-2.2,3.8-2.2,7.4v15.4L671.5,162.2z M722.2,153.1l5,0.6
	c-0.6,2.7-2.2,5.1-4.3,6.8c-2.4,1.7-5.2,2.5-8.1,2.4c-4.2,0-7.4-1.3-9.8-3.8s-3.6-6.1-3.6-10.7c0-4.7,1.2-8.4,3.7-11.1
	c2.5-2.6,5.9-4.1,9.5-3.9c3.5-0.1,6.9,1.3,9.3,3.9c2.4,2.6,3.6,6.2,3.6,10.9c0,0.3,0,0.7,0,1.3h-21.1c0.2,3.1,1.1,5.5,2.6,7.1
	c1.5,1.6,3.7,2.5,5.9,2.5c1.6,0.1,3.2-0.4,4.5-1.4C720.7,156.4,721.7,154.8,722.2,153.1L722.2,153.1z M706.4,145.3h15.8
	c0-1.9-0.7-3.8-1.8-5.4c-1.4-1.8-3.7-2.9-6-2.8c-2.1,0-4.1,0.7-5.6,2.2C707.3,141,706.4,143.1,706.4,145.3L706.4,145.3z M732,153.8
	l4.7-0.8c0.2,1.7,1,3.3,2.2,4.4c1.5,1.1,3.3,1.6,5.1,1.5c1.7,0.1,3.5-0.3,4.9-1.3c1-0.7,1.6-1.9,1.6-3.2c0-1-0.5-2-1.4-2.6
	c-1.6-0.7-3.2-1.3-4.9-1.6c-2.5-0.5-5-1.3-7.3-2.3c-1.3-0.6-2.4-1.5-3.1-2.7c-0.7-1.1-1-2.5-1-3.8c0-1.2,0.3-2.4,0.9-3.5
	c0.6-1.1,1.4-2,2.4-2.7c0.9-0.6,2-1.1,3-1.4c1.3-0.4,2.7-0.6,4.1-0.6c2,0,4,0.3,5.8,1c1.5,0.5,2.8,1.4,3.7,2.6
	c0.9,1.3,1.4,2.8,1.6,4.4l-4.7,0.6c-0.1-1.3-0.8-2.6-1.8-3.4c-1.3-0.9-2.8-1.3-4.3-1.2c-2.2,0-3.8,0.4-4.7,1.1
	c-0.9,0.6-1.4,1.5-1.4,2.6c0,0.6,0.2,1.2,0.6,1.7c0.5,0.6,1.1,1,1.8,1.3c0.5,0.2,1.9,0.6,4.2,1.2c2.4,0.6,4.8,1.3,7.1,2.2
	c1.3,0.5,2.4,1.4,3.2,2.5c0.8,1.2,1.2,2.6,1.2,4.1c0,1.6-0.5,3.2-1.4,4.5c-1,1.5-2.4,2.6-4,3.3c-1.9,0.8-3.9,1.2-6,1.2
	c-3.7,0-6.5-0.8-8.4-2.3C733.7,158.9,732.4,156.5,732,153.8L732,153.8z M760.2,153.8l4.7-0.8c0.2,1.7,1,3.3,2.2,4.4
	c1.5,1.1,3.3,1.6,5.1,1.5c1.7,0.1,3.5-0.3,4.9-1.3c1-0.7,1.6-1.9,1.6-3.2c0-1-0.5-2-1.4-2.6c-1.6-0.7-3.2-1.3-4.9-1.6
	c-2.5-0.5-5-1.3-7.3-2.3c-1.3-0.6-2.3-1.5-3.1-2.7c-0.7-1.1-1-2.5-1-3.8c0-1.2,0.3-2.4,0.9-3.5c0.6-1.1,1.4-2,2.4-2.7
	c0.9-0.6,1.9-1.1,3-1.4c1.3-0.4,2.7-0.6,4.1-0.6c2,0,4,0.3,5.8,1c1.5,0.5,2.8,1.4,3.7,2.6c0.9,1.3,1.4,2.8,1.7,4.4l-4.7,0.6
	c-0.1-1.3-0.8-2.6-1.8-3.4c-1.3-0.9-2.8-1.3-4.3-1.2c-2.2,0-3.8,0.4-4.7,1.1c-0.9,0.6-1.4,1.5-1.4,2.6c0,0.6,0.2,1.2,0.6,1.7
	c0.5,0.6,1.1,1,1.8,1.3c0.5,0.2,1.9,0.6,4.2,1.2c2.4,0.6,4.8,1.3,7.1,2.2c1.3,0.5,2.4,1.4,3.2,2.5c0.8,1.2,1.2,2.6,1.2,4.1
	c0,1.6-0.5,3.2-1.4,4.5c-1,1.5-2.4,2.6-4,3.3c-1.9,0.8-3.9,1.2-6,1.2c-3.7,0-6.5-0.8-8.4-2.3C761.8,158.9,760.5,156.5,760.2,153.8
	L760.2,153.8z M809.6,153.1l5,0.6c-0.6,2.7-2.2,5.1-4.3,6.8c-2.4,1.7-5.2,2.5-8.1,2.4c-4.1,0-7.4-1.3-9.8-3.8
	c-2.4-2.6-3.7-6.1-3.7-10.7c0-4.7,1.2-8.4,3.7-11.1c2.5-2.6,5.9-4.1,9.5-3.9c3.5-0.1,6.9,1.3,9.3,3.9c2.4,2.6,3.6,6.2,3.6,10.9
	c0,0.3,0,0.7,0,1.3h-21.1c0.2,3.1,1.1,5.5,2.7,7.1c1.5,1.6,3.7,2.5,5.9,2.5c1.6,0.1,3.2-0.4,4.5-1.4
	C808.1,156.4,809.1,154.9,809.6,153.1L809.6,153.1z M793.9,145.4h15.8c0-1.9-0.7-3.8-1.8-5.4c-1.4-1.8-3.7-2.9-6-2.8
	c-2.1,0-4.1,0.7-5.5,2.2C794.8,141,793.9,143.1,793.9,145.4L793.9,145.4z M819.5,153.8l4.7-0.8c0.2,1.7,1,3.3,2.2,4.4
	c1.5,1.1,3.3,1.6,5.1,1.5c1.7,0.1,3.5-0.3,4.9-1.3c1-0.7,1.6-1.9,1.6-3.2c0-1-0.5-2-1.4-2.6c-1.6-0.7-3.2-1.3-4.9-1.6
	c-2.5-0.5-4.9-1.3-7.3-2.3c-1.3-0.6-2.4-1.5-3.1-2.7c-0.7-1.1-1-2.5-1-3.8c0-1.2,0.3-2.4,0.9-3.5c0.6-1.1,1.4-2,2.4-2.7
	c0.9-0.6,1.9-1.1,3-1.4c1.3-0.4,2.7-0.6,4.1-0.6c2,0,4,0.3,5.8,1c1.5,0.5,2.8,1.4,3.7,2.6c0.9,1.3,1.4,2.8,1.7,4.4l-4.7,0.6
	c-0.1-1.3-0.8-2.6-1.8-3.4c-1.3-0.9-2.8-1.3-4.3-1.2c-2.2,0-3.8,0.4-4.7,1.1c-0.9,0.6-1.4,1.5-1.4,2.6c0,0.6,0.2,1.2,0.6,1.7
	c0.5,0.6,1.1,1,1.8,1.3c0.5,0.2,1.9,0.6,4.3,1.2c2.4,0.6,4.8,1.3,7.1,2.2c1.3,0.5,2.4,1.4,3.2,2.5c0.8,1.2,1.2,2.6,1.2,4.1
	c0,1.6-0.5,3.2-1.4,4.5c-1,1.5-2.4,2.6-4,3.3c-1.9,0.8-3.9,1.2-6,1.2c-3.7,0-6.5-0.8-8.4-2.3C821.3,158.9,819.9,156.5,819.5,153.8
	L819.5,153.8z M884.5,146.9v-4.6h16.5v14.5c-2.4,1.9-5,3.5-7.9,4.6c-2.7,1-5.5,1.5-8.3,1.5c-3.6,0.1-7.2-0.8-10.5-2.5
	c-3.1-1.6-5.6-4.1-7.1-7.1c-1.6-3.2-2.5-6.8-2.4-10.4c0-3.7,0.8-7.3,2.4-10.6c1.4-3.1,3.8-5.7,6.9-7.3c3.2-1.6,6.7-2.5,10.3-2.4
	c2.6,0,5.2,0.4,7.7,1.4c2.1,0.8,3.9,2.1,5.4,3.8c1.4,1.9,2.5,4.1,3,6.4l-4.7,1.3c-0.4-1.7-1.2-3.3-2.2-4.7c-1-1.2-2.3-2.2-3.7-2.7
	c-1.7-0.7-3.5-1-5.4-1c-2.1,0-4.2,0.3-6.1,1.1c-1.6,0.6-3,1.6-4.2,2.8c-1,1.1-1.9,2.4-2.5,3.9c-1,2.5-1.5,5.2-1.5,7.9
	c-0.1,3,0.5,6,1.8,8.7c1.1,2.3,3,4.1,5.2,5.2c2.3,1.1,4.8,1.7,7.3,1.7c4.1-0.1,8.1-1.5,11.4-4.1v-7.3L884.5,146.9L884.5,146.9z
	 M908.9,162.2v-39h4.8v39.1L908.9,162.2z M920.2,148.1c0-5.2,1.5-9.1,4.4-11.6c2.5-2.1,5.6-3.2,8.9-3.1c3.6-0.1,7,1.3,9.5,3.8
	c2.5,2.6,3.7,6.1,3.7,10.6c0.1,3-0.4,5.9-1.7,8.6c-1.1,2.1-2.7,3.7-4.8,4.9c-2.1,1.2-4.4,1.8-6.8,1.7c-3.6,0.1-7.1-1.2-9.6-3.8
	C921.4,156.5,920.2,152.8,920.2,148.1L920.2,148.1z M925.1,148.1c0,3.6,0.8,6.3,2.4,8.1c2.9,3.3,7.9,3.6,11.2,0.7
	c0.3-0.2,0.5-0.5,0.7-0.7c1.6-1.8,2.4-4.6,2.4-8.3c0-3.5-0.8-6.1-2.4-8c-2.9-3.3-7.9-3.6-11.2-0.7c-0.3,0.2-0.5,0.5-0.7,0.7
	C925.9,141.7,925.1,144.4,925.1,148.1L925.1,148.1z M957.6,162.2h-4.5v-39h4.8v13.9c1.8-2.4,4.7-3.9,7.8-3.8c1.7,0,3.4,0.3,4.9,1
	c1.5,0.7,2.8,1.7,3.8,3c1.1,1.4,1.9,2.9,2.4,4.6c0.6,1.9,0.9,3.8,0.8,5.8c0,4.8-1.2,8.6-3.6,11.3c-2.1,2.5-5.3,4-8.6,4
	c-3.2,0.1-6.2-1.5-7.9-4.2V162.2z M957.5,147.9c0,3.4,0.5,5.8,1.4,7.4c1.7,3.4,5.9,4.7,9.2,3c0.9-0.5,1.7-1.1,2.3-2
	c1.5-1.8,2.3-4.5,2.3-8.1s-0.7-6.4-2.2-8.2c-1.3-1.7-3.2-2.6-5.3-2.6c-2.1,0-4.1,1-5.4,2.7C958.3,141.8,957.5,144.4,957.5,147.9
	L957.5,147.9z M1002.9,158.7c-1.5,1.3-3.3,2.4-5.1,3.2c-1.7,0.6-3.5,0.9-5.3,0.9c-3.1,0-5.5-0.8-7.2-2.3c-1.7-1.5-2.6-3.6-2.5-5.8
	c0-2.6,1.3-5.1,3.4-6.6c1.1-0.7,2.2-1.2,3.5-1.6c1.4-0.3,2.8-0.6,4.3-0.7c2.9-0.3,5.8-0.8,8.5-1.6c0-0.7,0-1.1,0-1.3
	c0-2-0.5-3.3-1.4-4.1c-1.6-1.2-3.5-1.8-5.5-1.6c-1.8-0.1-3.5,0.3-5,1.2c-1.3,1.1-2.1,2.6-2.4,4.2l-4.7-0.6c0.3-1.8,1-3.4,2.1-4.9
	c1.1-1.3,2.6-2.3,4.3-2.9c2.1-0.7,4.2-1,6.4-1c2-0.1,4,0.2,5.9,0.9c1.3,0.4,2.4,1.2,3.3,2.1c0.8,0.9,1.3,2.1,1.5,3.3
	c0.2,1.5,0.3,2.9,0.2,4.4v6.4c-0.1,2.8,0,5.6,0.3,8.5c0.2,1.2,0.6,2.3,1.2,3.4h-5C1003.3,161.1,1002.9,159.9,1002.9,158.7
	L1002.9,158.7z M1002.5,148c-2.5,0.9-5.2,1.5-7.8,1.8c-1.4,0.2-2.8,0.5-4.2,1c-1.6,0.6-2.6,2.2-2.6,3.8c0,1.2,0.5,2.4,1.5,3.2
	c1.2,0.9,2.7,1.4,4.3,1.3c1.7,0,3.4-0.4,4.9-1.2c1.4-0.7,2.5-1.9,3.2-3.3c0.6-1.5,0.9-3.2,0.8-4.8L1002.5,148z M1015.6,162.2v-39
	h4.8v39.1L1015.6,162.2z M1028.6,162.2v-39h4.8v39.1L1028.6,162.2z M1041.4,173.1l-0.5-4.5c0.9,0.3,1.8,0.4,2.7,0.4
	c0.9,0,1.8-0.1,2.6-0.5c0.6-0.3,1.2-0.9,1.6-1.5c0.6-1.1,1.1-2.3,1.5-3.6c0.1-0.3,0.2-0.7,0.4-1.2l-10.7-28.4h5.1l5.9,16.4
	c0.8,2.1,1.4,4.3,2,6.5c0.6-2.2,1.2-4.3,2-6.4l6-16.5h4.8l-10.7,28.8c-0.8,2.2-1.7,4.3-2.7,6.4c-0.7,1.4-1.7,2.6-2.9,3.5
	c-1.2,0.8-2.5,1.1-3.9,1.1C1043.4,173.7,1042.4,173.5,1041.4,173.1L1041.4,173.1z"/>
</svg>
